<mxfile host="app.diagrams.net" agent="Mozilla/5.0 (Macintosh; Intel Mac OS X 10_15_7) AppleWebKit/537.36 (KHTML, like Gecko) Chrome/138.0.0.0 Safari/537.36" version="28.0.5">
  <diagram name="Page-1" id="55a83fd1-7818-8e21-69c5-c3457e3827bb">
    <mxGraphModel dx="1018" dy="658" grid="1" gridSize="10" guides="1" tooltips="1" connect="1" arrows="1" fold="1" page="1" pageScale="1" pageWidth="1100" pageHeight="850" background="none" math="0" shadow="0">
      <root>
        <mxCell id="0" />
        <mxCell id="1" parent="0" />
        <mxCell id="VvJMJaU7SE6beF8pdY5j-20" value="" style="edgeStyle=orthogonalEdgeStyle;rounded=0;orthogonalLoop=1;jettySize=auto;html=1;strokeColor=#FF3333;" edge="1" parent="1" source="69ecfefc5c41e42c-2" target="VvJMJaU7SE6beF8pdY5j-6">
          <mxGeometry relative="1" as="geometry" />
        </mxCell>
        <mxCell id="VvJMJaU7SE6beF8pdY5j-21" value="光纤" style="edgeLabel;html=1;align=center;verticalAlign=middle;resizable=0;points=[];" vertex="1" connectable="0" parent="VvJMJaU7SE6beF8pdY5j-20">
          <mxGeometry x="-0.45" y="-2" relative="1" as="geometry">
            <mxPoint as="offset" />
          </mxGeometry>
        </mxCell>
        <mxCell id="69ecfefc5c41e42c-2" value="Internet" style="image;html=1;labelBackgroundColor=#ffffff;image=img/lib/clip_art/networking/Cloud_128x128.png;rounded=1;shadow=0;comic=0;strokeWidth=2;fontSize=22;labelPosition=center;verticalLabelPosition=top;align=center;verticalAlign=bottom;" parent="1" vertex="1">
          <mxGeometry x="130" y="170" width="80" height="80" as="geometry" />
        </mxCell>
        <mxCell id="69ecfefc5c41e42c-5" value="PC" style="image;html=1;labelBackgroundColor=#ffffff;image=img/lib/clip_art/computers/Monitor_Tower_128x128.png;rounded=1;shadow=0;comic=0;strokeWidth=2;fontSize=22" parent="1" vertex="1">
          <mxGeometry x="400" y="120" width="80" height="80" as="geometry" />
        </mxCell>
        <mxCell id="69ecfefc5c41e42c-10" value="Laptop" style="image;html=1;labelBackgroundColor=#ffffff;image=img/lib/clip_art/computers/Netbook_128x128.png;rounded=1;shadow=0;comic=0;strokeWidth=2;fontSize=22" parent="1" vertex="1">
          <mxGeometry x="300" y="120" width="80" height="80" as="geometry" />
        </mxCell>
        <mxCell id="VvJMJaU7SE6beF8pdY5j-35" value="" style="edgeStyle=orthogonalEdgeStyle;rounded=0;orthogonalLoop=1;jettySize=auto;html=1;strokeColor=#00CCCC;exitX=0.388;exitY=1.05;exitDx=0;exitDy=0;exitPerimeter=0;" edge="1" parent="1" source="VvJMJaU7SE6beF8pdY5j-1" target="VvJMJaU7SE6beF8pdY5j-3">
          <mxGeometry relative="1" as="geometry">
            <mxPoint x="240" y="560" as="sourcePoint" />
            <mxPoint x="290" y="620" as="targetPoint" />
            <Array as="points">
              <mxPoint x="240" y="554" />
              <mxPoint x="240" y="570" />
              <mxPoint x="370" y="570" />
            </Array>
          </mxGeometry>
        </mxCell>
        <mxCell id="VvJMJaU7SE6beF8pdY5j-37" value="WAN口" style="edgeLabel;html=1;align=center;verticalAlign=middle;resizable=0;points=[];" vertex="1" connectable="0" parent="VvJMJaU7SE6beF8pdY5j-35">
          <mxGeometry x="0.8296" y="-1" relative="1" as="geometry">
            <mxPoint as="offset" />
          </mxGeometry>
        </mxCell>
        <mxCell id="VvJMJaU7SE6beF8pdY5j-61" value="LAN口" style="edgeLabel;html=1;align=center;verticalAlign=middle;resizable=0;points=[];" vertex="1" connectable="0" parent="VvJMJaU7SE6beF8pdY5j-35">
          <mxGeometry x="-0.8585" y="1" relative="1" as="geometry">
            <mxPoint as="offset" />
          </mxGeometry>
        </mxCell>
        <mxCell id="VvJMJaU7SE6beF8pdY5j-1" value="" style="image;html=1;image=img/lib/clip_art/networking/Router_128x128.png" vertex="1" parent="1">
          <mxGeometry x="210" y="470" width="80" height="80" as="geometry" />
        </mxCell>
        <mxCell id="VvJMJaU7SE6beF8pdY5j-41" style="edgeStyle=orthogonalEdgeStyle;rounded=0;orthogonalLoop=1;jettySize=auto;html=1;entryX=0;entryY=0.5;entryDx=0;entryDy=0;" edge="1" parent="1" source="VvJMJaU7SE6beF8pdY5j-3" target="VvJMJaU7SE6beF8pdY5j-38">
          <mxGeometry relative="1" as="geometry" />
        </mxCell>
        <mxCell id="VvJMJaU7SE6beF8pdY5j-46" value="WAN口" style="edgeLabel;html=1;align=center;verticalAlign=middle;resizable=0;points=[];" vertex="1" connectable="0" parent="VvJMJaU7SE6beF8pdY5j-41">
          <mxGeometry x="0.8316" y="1" relative="1" as="geometry">
            <mxPoint as="offset" />
          </mxGeometry>
        </mxCell>
        <mxCell id="VvJMJaU7SE6beF8pdY5j-50" style="edgeStyle=orthogonalEdgeStyle;rounded=0;orthogonalLoop=1;jettySize=auto;html=1;entryX=0;entryY=0.5;entryDx=0;entryDy=0;" edge="1" parent="1" source="VvJMJaU7SE6beF8pdY5j-3" target="VvJMJaU7SE6beF8pdY5j-43">
          <mxGeometry relative="1" as="geometry" />
        </mxCell>
        <mxCell id="VvJMJaU7SE6beF8pdY5j-51" style="edgeStyle=orthogonalEdgeStyle;rounded=0;orthogonalLoop=1;jettySize=auto;html=1;entryX=0;entryY=0.75;entryDx=0;entryDy=0;" edge="1" parent="1" source="VvJMJaU7SE6beF8pdY5j-3" target="VvJMJaU7SE6beF8pdY5j-44">
          <mxGeometry relative="1" as="geometry" />
        </mxCell>
        <mxCell id="VvJMJaU7SE6beF8pdY5j-3" value="" style="image;html=1;image=img/lib/clip_art/networking/Switch_128x128.png" vertex="1" parent="1">
          <mxGeometry x="330" y="283" width="80" height="80" as="geometry" />
        </mxCell>
        <mxCell id="VvJMJaU7SE6beF8pdY5j-27" style="edgeStyle=orthogonalEdgeStyle;rounded=0;orthogonalLoop=1;jettySize=auto;html=1;strokeColor=#00CCCC;" edge="1" parent="1" source="VvJMJaU7SE6beF8pdY5j-6" target="VvJMJaU7SE6beF8pdY5j-1">
          <mxGeometry relative="1" as="geometry" />
        </mxCell>
        <mxCell id="VvJMJaU7SE6beF8pdY5j-28" value="千兆口" style="edgeLabel;html=1;align=center;verticalAlign=middle;resizable=0;points=[];" vertex="1" connectable="0" parent="VvJMJaU7SE6beF8pdY5j-27">
          <mxGeometry x="-0.7625" y="-2" relative="1" as="geometry">
            <mxPoint as="offset" />
          </mxGeometry>
        </mxCell>
        <mxCell id="VvJMJaU7SE6beF8pdY5j-29" value="WAN口" style="edgeLabel;html=1;align=center;verticalAlign=middle;resizable=0;points=[];" vertex="1" connectable="0" parent="VvJMJaU7SE6beF8pdY5j-27">
          <mxGeometry x="0.8" y="3" relative="1" as="geometry">
            <mxPoint as="offset" />
          </mxGeometry>
        </mxCell>
        <mxCell id="VvJMJaU7SE6beF8pdY5j-31" style="edgeStyle=orthogonalEdgeStyle;rounded=0;orthogonalLoop=1;jettySize=auto;html=1;entryX=0.25;entryY=0;entryDx=0;entryDy=0;strokeColor=#00CCCC;" edge="1" parent="1" source="VvJMJaU7SE6beF8pdY5j-6" target="VvJMJaU7SE6beF8pdY5j-26">
          <mxGeometry relative="1" as="geometry" />
        </mxCell>
        <mxCell id="VvJMJaU7SE6beF8pdY5j-32" value="IPTV" style="edgeLabel;html=1;align=center;verticalAlign=middle;resizable=0;points=[];" vertex="1" connectable="0" parent="VvJMJaU7SE6beF8pdY5j-31">
          <mxGeometry x="0.125" y="-1" relative="1" as="geometry">
            <mxPoint as="offset" />
          </mxGeometry>
        </mxCell>
        <mxCell id="VvJMJaU7SE6beF8pdY5j-6" value="" style="image;html=1;image=img/lib/clip_art/networking/Bridge_128x128.png" vertex="1" parent="1">
          <mxGeometry x="130" y="258" width="80" height="80" as="geometry" />
        </mxCell>
        <mxCell id="VvJMJaU7SE6beF8pdY5j-13" value="&lt;div style=&quot;text-align: center;&quot;&gt;&lt;span style=&quot;color: light-dark(rgb(0, 0, 0), rgb(255, 255, 255)); font-size: 22px; text-wrap-mode: nowrap; background-color: rgb(255, 255, 255);&quot;&gt;光猫&lt;/span&gt;&lt;/div&gt;" style="text;whiteSpace=wrap;html=1;" vertex="1" parent="1">
          <mxGeometry x="220" y="315" width="100" height="50" as="geometry" />
        </mxCell>
        <mxCell id="VvJMJaU7SE6beF8pdY5j-19" value="&lt;div style=&quot;text-align: center;&quot;&gt;&lt;span style=&quot;font-size: 22px; text-wrap-mode: nowrap; background-color: rgb(255, 255, 255);&quot;&gt;交换机&lt;/span&gt;&lt;/div&gt;" style="text;whiteSpace=wrap;html=1;" vertex="1" parent="1">
          <mxGeometry x="400" y="440" width="100" height="50" as="geometry" />
        </mxCell>
        <mxCell id="VvJMJaU7SE6beF8pdY5j-25" value="&lt;div style=&quot;text-align: center;&quot;&gt;&lt;span style=&quot;font-size: 22px; text-wrap-mode: nowrap; background-color: rgb(255, 255, 255);&quot;&gt;主路由器&lt;/span&gt;&lt;/div&gt;" style="text;whiteSpace=wrap;html=1;" vertex="1" parent="1">
          <mxGeometry x="270" y="510" width="100" height="50" as="geometry" />
        </mxCell>
        <mxCell id="VvJMJaU7SE6beF8pdY5j-26" value="" style="image;html=1;image=img/lib/clip_art/computers/iMac_128x128.png" vertex="1" parent="1">
          <mxGeometry x="50" y="470" width="80" height="80" as="geometry" />
        </mxCell>
        <mxCell id="VvJMJaU7SE6beF8pdY5j-36" style="edgeStyle=orthogonalEdgeStyle;rounded=0;orthogonalLoop=1;jettySize=auto;html=1;exitX=0.5;exitY=1;exitDx=0;exitDy=0;" edge="1" parent="1" source="VvJMJaU7SE6beF8pdY5j-1" target="VvJMJaU7SE6beF8pdY5j-1">
          <mxGeometry relative="1" as="geometry" />
        </mxCell>
        <mxCell id="VvJMJaU7SE6beF8pdY5j-38" value="" style="image;html=1;image=img/lib/clip_art/networking/Switch_128x128.png" vertex="1" parent="1">
          <mxGeometry x="570" y="170" width="80" height="80" as="geometry" />
        </mxCell>
        <mxCell id="VvJMJaU7SE6beF8pdY5j-39" value="&lt;div style=&quot;text-align: center;&quot;&gt;&lt;span style=&quot;font-size: 22px; text-wrap-mode: nowrap; background-color: rgb(255, 255, 255);&quot;&gt;电视&lt;/span&gt;&lt;/div&gt;" style="text;whiteSpace=wrap;html=1;" vertex="1" parent="1">
          <mxGeometry x="90" y="520" width="100" height="50" as="geometry" />
        </mxCell>
        <mxCell id="VvJMJaU7SE6beF8pdY5j-40" value="&lt;div style=&quot;text-align: center;&quot;&gt;&lt;span style=&quot;font-size: 22px; text-wrap-mode: nowrap; background-color: rgb(255, 255, 255);&quot;&gt;子路由器&lt;/span&gt;&lt;/div&gt;" style="text;whiteSpace=wrap;html=1;" vertex="1" parent="1">
          <mxGeometry x="650" y="190" width="100" height="50" as="geometry" />
        </mxCell>
        <mxCell id="VvJMJaU7SE6beF8pdY5j-42" value="" style="image;html=1;image=img/lib/clip_art/networking/Switch_128x128.png" vertex="1" parent="1">
          <mxGeometry x="570" y="283" width="80" height="80" as="geometry" />
        </mxCell>
        <mxCell id="VvJMJaU7SE6beF8pdY5j-43" value="" style="image;html=1;image=img/lib/clip_art/networking/Switch_128x128.png" vertex="1" parent="1">
          <mxGeometry x="570" y="370" width="80" height="80" as="geometry" />
        </mxCell>
        <mxCell id="VvJMJaU7SE6beF8pdY5j-44" value="" style="image;html=1;image=img/lib/clip_art/networking/Switch_128x128.png" vertex="1" parent="1">
          <mxGeometry x="570" y="460" width="80" height="80" as="geometry" />
        </mxCell>
        <mxCell id="VvJMJaU7SE6beF8pdY5j-49" value="WAN口" style="edgeStyle=orthogonalEdgeStyle;rounded=0;orthogonalLoop=1;jettySize=auto;html=1;" edge="1" parent="1" target="VvJMJaU7SE6beF8pdY5j-42">
          <mxGeometry x="0.1549" y="4" relative="1" as="geometry">
            <mxPoint x="490" y="323" as="sourcePoint" />
            <Array as="points">
              <mxPoint x="490" y="324" />
            </Array>
            <mxPoint as="offset" />
          </mxGeometry>
        </mxCell>
        <mxCell id="VvJMJaU7SE6beF8pdY5j-45" value="LAN口" style="text;html=1;align=center;verticalAlign=middle;resizable=0;points=[];autosize=1;strokeColor=none;fillColor=none;" vertex="1" parent="1">
          <mxGeometry x="400" y="308" width="60" height="30" as="geometry" />
        </mxCell>
        <mxCell id="VvJMJaU7SE6beF8pdY5j-55" value="&lt;div style=&quot;text-align: center;&quot;&gt;&lt;span style=&quot;font-size: 22px; text-wrap-mode: nowrap; background-color: rgb(255, 255, 255);&quot;&gt;子路由器&lt;/span&gt;&lt;/div&gt;" style="text;whiteSpace=wrap;html=1;" vertex="1" parent="1">
          <mxGeometry x="650" y="298" width="100" height="50" as="geometry" />
        </mxCell>
        <mxCell id="VvJMJaU7SE6beF8pdY5j-56" value="&lt;div style=&quot;text-align: center;&quot;&gt;&lt;span style=&quot;font-size: 22px; text-wrap-mode: nowrap; background-color: rgb(255, 255, 255);&quot;&gt;子路由器&lt;/span&gt;&lt;/div&gt;" style="text;whiteSpace=wrap;html=1;" vertex="1" parent="1">
          <mxGeometry x="650" y="390" width="100" height="50" as="geometry" />
        </mxCell>
        <mxCell id="VvJMJaU7SE6beF8pdY5j-57" value="&lt;div style=&quot;text-align: center;&quot;&gt;&lt;span style=&quot;font-size: 22px; text-wrap-mode: nowrap; background-color: rgb(255, 255, 255);&quot;&gt;子路由器&lt;/span&gt;&lt;/div&gt;" style="text;whiteSpace=wrap;html=1;" vertex="1" parent="1">
          <mxGeometry x="650" y="475" width="100" height="50" as="geometry" />
        </mxCell>
      </root>
    </mxGraphModel>
  </diagram>
</mxfile>
